<?xml version="1.0" encoding="UTF-8"?>
<!DOCTYPE svg PUBLIC "-//W3C//DTD SVG 1.1//EN" "http://www.w3.org/Graphics/SVG/1.1/DTD/svg11.dtd">
<svg xmlns="http://www.w3.org/2000/svg" version="1.1" width="512px" height="512px" style="shape-rendering:geometricPrecision; text-rendering:geometricPrecision; image-rendering:optimizeQuality; fill-rule:evenodd; clip-rule:evenodd" xmlns:xlink="http://www.w3.org/1999/xlink">
<g><path style="opacity:0.979" fill="#2a2928" d="M 50.5,93.5 C 61.617,94.0305 71.9503,97.1971 81.5,103C 89.2646,108.761 96.4313,115.261 103,122.5C 111.129,132.298 119.629,141.798 128.5,151C 144.263,163.205 160.263,163.539 176.5,152C 187.369,140.8 197.869,129.3 208,117.5C 217.882,106.308 230.048,98.8084 244.5,95C 263.45,91.5703 280.116,96.237 294.5,109C 307.534,122.366 320.201,136.033 332.5,150C 347.792,162.614 363.792,163.614 380.5,153C 395.139,137.693 409.806,122.36 424.5,107C 450.118,89.2579 475.451,89.9246 500.5,109C 503.333,111.833 506.167,114.667 509,117.5C 509.715,132.169 510.048,146.836 510,161.5C 498.459,148.324 484.626,138.491 468.5,132C 459.916,130.812 451.916,132.479 444.5,137C 441.167,139.333 437.833,141.667 434.5,144C 421.137,157.029 408.137,170.362 395.5,184C 374.894,200.868 352.894,202.868 329.5,190C 312.808,174.308 296.475,158.308 280.5,142C 273.216,136.441 265.049,132.941 256,131.5C 246.951,132.941 238.784,136.441 231.5,142C 216.517,156.914 201.517,171.914 186.5,187C 167.056,200.623 146.723,201.956 125.5,191C 122.167,188.333 118.833,185.667 115.5,183C 103.141,169.642 90.4747,156.642 77.5,144C 71.6639,139.502 65.3306,135.836 58.5,133C 48.0578,130.026 38.3912,131.692 29.5,138C 19.7449,145.084 10.5783,152.917 2,161.5C 1.33333,146.833 1.33333,132.167 2,117.5C 15.0477,102.896 31.2144,94.8963 50.5,93.5 Z"/></g>
<g><path style="opacity:0.979" fill="#2b2928" d="M 40.5,199.5 C 59.5776,197.138 76.2443,202.305 90.5,215C 103.534,228.366 116.201,242.033 128.5,256C 143.7,267.8 159.366,268.467 175.5,258C 190.167,242.667 204.833,227.333 219.5,212C 236.024,199.253 254.357,195.919 274.5,202C 287.374,208.195 298.541,216.695 308,227.5C 316.129,237.298 324.629,246.798 333.5,256C 348.7,267.8 364.366,268.467 380.5,258C 394.778,243.053 409.111,228.053 423.5,213C 437.387,201.217 453.387,196.884 471.5,200C 486.385,203.526 498.885,211.026 509,222.5C 509.715,237.169 510.048,251.836 510,266.5C 501.422,257.917 492.255,250.084 482.5,243C 470.861,235.214 458.861,234.547 446.5,241C 441.992,243.753 437.659,246.753 433.5,250C 420.137,263.029 407.137,276.362 394.5,290C 373.979,305.991 352.312,307.657 329.5,295C 313.142,279.641 297.142,263.974 281.5,248C 274.06,241.864 265.56,238.031 256,236.5C 246.44,238.031 237.94,241.864 230.5,248C 215.887,262.613 201.221,277.279 186.5,292C 165.635,306.501 144.301,307.168 122.5,294C 107.887,279.387 93.2208,264.721 78.5,250C 72.4638,244.981 65.7972,240.981 58.5,238C 48.0707,235.027 38.404,236.693 29.5,243C 19.7449,250.084 10.5783,257.917 2,266.5C 1.33333,251.833 1.33333,237.167 2,222.5C 12.5217,210.828 25.3551,203.161 40.5,199.5 Z"/></g>
<g><path style="opacity:0.98" fill="#2a2928" d="M 40.5,309.5 C 59.6473,306.949 76.314,312.116 90.5,325C 103.534,338.366 116.201,352.033 128.5,366C 144.297,378.145 160.297,378.478 176.5,367C 190.833,352 205.167,337 219.5,322C 237.95,308.427 257.95,305.76 279.5,314C 290.792,320.281 300.625,328.448 309,338.5C 316.796,347.964 324.962,357.131 333.5,366C 348.728,377.697 364.394,378.364 380.5,368C 394.778,353.053 409.111,338.053 423.5,323C 437.39,311.193 453.39,306.859 471.5,310C 486.38,313.524 498.88,321.024 509,332.5C 509.715,347.169 510.048,361.836 510,376.5C 498.347,363.501 484.514,353.668 468.5,347C 459.916,345.812 451.916,347.479 444.5,352C 440.656,354.422 436.99,357.089 433.5,360C 420.47,372.696 407.804,385.696 395.5,399C 374.911,415.929 352.911,417.929 329.5,405C 313.142,389.641 297.142,373.974 281.5,358C 274.06,351.864 265.56,348.031 256,346.5C 246.44,348.031 237.94,351.864 230.5,358C 215.887,372.613 201.221,387.279 186.5,402C 165.635,416.501 144.301,417.168 122.5,404C 107.554,389.054 92.5541,374.054 77.5,359C 71.6639,354.502 65.3306,350.836 58.5,348C 48.0707,345.027 38.404,346.693 29.5,353C 19.7449,360.084 10.5783,367.917 2,376.5C 1.33333,361.833 1.33333,347.167 2,332.5C 12.5217,320.828 25.3551,313.161 40.5,309.5 Z"/></g>
</svg>
